<svg width="304" height="99" viewBox="0 0 304 99" fill="none" xmlns="http://www.w3.org/2000/svg">
<g filter="url(#filter0_d_2797_8)">
<path d="M26.75 17.825H35L53.225 69.575L57.875 70.325V74H38.075V70.325L44.3 69.575L40.775 58.475H18.875L15.35 69.575L21.8 70.325V74H4.025V70.325L8.675 69.575L26.75 17.825ZM31.475 29.825L29.6 23.225L27.8 29.975L20.225 54.05H39.35L31.475 29.825ZM86.5537 71.3C84.1037 73.65 80.6537 74.825 76.2037 74.825C73.3537 74.825 70.7037 74.125 68.2537 72.725C65.8537 71.275 63.9037 69 62.4037 65.9C60.9037 62.8 60.1537 58.875 60.1537 54.125C60.1537 49.775 60.9537 45.875 62.5537 42.425C64.1537 38.975 66.4287 36.25 69.3787 34.25C72.3787 32.25 75.8537 31.25 79.8037 31.25C81.0537 31.25 82.2787 31.425 83.4787 31.775C84.6787 32.075 85.7037 32.45 86.5537 32.9L86.3287 26.675V17.975L80.2537 17.225V14L92.2537 12.575L93.9787 13.7V26.675L93.7537 34.85C96.3537 32.45 99.8287 31.25 104.179 31.25C107.029 31.25 109.654 31.975 112.054 33.425C114.504 34.825 116.479 37.075 117.979 40.175C119.479 43.275 120.229 47.2 120.229 51.95C120.229 56.3 119.429 60.2 117.829 63.65C116.229 67.1 113.929 69.825 110.929 71.825C107.929 73.825 104.454 74.825 100.504 74.825C99.2537 74.825 98.0287 74.675 96.8287 74.375C95.6287 74.075 94.6537 73.7 93.9037 73.25L94.1287 79.025V87.65L100.654 88.55V92.3H80.1037V88.55L86.3287 87.65V79.025L86.5537 71.3ZM86.3287 37.625C85.8787 37.075 85.0787 36.525 83.9287 35.975C82.7787 35.425 81.4787 35.15 80.0287 35.15C76.6287 35.15 73.8537 36.675 71.7037 39.725C69.6037 42.775 68.5537 47.375 68.5537 53.525C68.5537 59.075 69.5537 63.2 71.5537 65.9C73.6037 68.6 76.2037 69.95 79.3537 69.95C80.8037 69.95 82.1537 69.75 83.4037 69.35C84.6537 68.95 85.6287 68.475 86.3287 67.925V37.625ZM93.9787 68.45C94.4787 69 95.2787 69.55 96.3787 70.1C97.5287 70.65 98.8537 70.925 100.354 70.925C103.754 70.925 106.504 69.425 108.604 66.425C110.754 63.425 111.829 58.925 111.829 52.925C111.829 47.275 110.804 43.075 108.754 40.325C106.754 37.525 104.204 36.125 101.104 36.125C99.6037 36.125 98.2037 36.325 96.9037 36.725C95.6537 37.125 94.6787 37.6 93.9787 38.15V68.45ZM146.383 32.375V36.05L140.233 37.1V62.225L144.733 56.3L161.683 38.375V37.1L156.133 36.05V32.375H174.883V36.05L169.483 37.1V69.65L175.108 70.325V74H155.683V70.325L161.683 69.65V44.15L156.733 51.05L140.233 68.225V69.725L145.183 70.325V74H126.883V70.325L132.508 69.65V37.1L126.958 36.05V32.375H146.383ZM201.536 32.375V36.05L195.311 37.1V69.875H211.661V37.1L205.361 36.05V32.375H225.236V36.05L219.311 37.1V69.875H235.736V37.1L229.436 36.05V32.375H249.386V36.05L243.386 37.1V69.65L249.911 70.475V74H181.211V70.475L187.586 69.65V37.1L181.361 36.05V32.375H201.536ZM255.934 62.75C255.934 58.05 258.284 54.6 262.984 52.4C267.684 50.15 273.634 48.95 280.834 48.8V46.7C280.834 44.35 280.584 42.5 280.084 41.15C279.584 39.8 278.709 38.825 277.459 38.225C276.259 37.575 274.534 37.25 272.284 37.25C269.734 37.25 267.434 37.625 265.384 38.375C263.384 39.075 261.384 39.95 259.384 41L257.509 37.1C258.159 36.55 259.359 35.825 261.109 34.925C262.859 34.025 264.884 33.225 267.184 32.525C269.484 31.825 271.784 31.475 274.084 31.475C277.634 31.475 280.434 31.975 282.484 32.975C284.584 33.925 286.084 35.475 286.984 37.625C287.884 39.775 288.334 42.65 288.334 46.25V70.325H292.759V73.625C291.759 73.875 290.484 74.125 288.934 74.375C287.434 74.625 286.109 74.75 284.959 74.75C283.559 74.75 282.609 74.525 282.109 74.075C281.609 73.675 281.359 72.75 281.359 71.3V68.825C279.859 70.325 278.009 71.7 275.809 72.95C273.659 74.2 271.209 74.825 268.459 74.825C264.859 74.825 261.859 73.8 259.459 71.75C257.109 69.65 255.934 66.65 255.934 62.75ZM271.684 69.725C272.984 69.725 274.484 69.325 276.184 68.525C277.884 67.725 279.434 66.775 280.834 65.675V52.775C275.384 52.775 271.259 53.625 268.459 55.325C265.709 56.975 264.334 59.15 264.334 61.85C264.334 64.55 264.984 66.55 266.284 67.85C267.634 69.1 269.434 69.725 271.684 69.725Z" fill="#181818"/>
</g>
<defs>
<filter id="filter0_d_2797_8" x="0.670143" y="10.128" width="297.254" height="88.2442" filterUnits="userSpaceOnUse" color-interpolation-filters="sRGB">
<feFlood flood-opacity="0" result="BackgroundImageFix"/>
<feColorMatrix in="SourceAlpha" type="matrix" values="0 0 0 0 0 0 0 0 0 0 0 0 0 0 0 0 0 0 127 0" result="hardAlpha"/>
<feOffset dx="0.906296" dy="1.81259"/>
<feGaussianBlur stdDeviation="2.1298"/>
<feComposite in2="hardAlpha" operator="out"/>
<feColorMatrix type="matrix" values="0 0 0 0 0 0 0 0 0 0 0 0 0 0 0 0 0 0 0.25 0"/>
<feBlend mode="normal" in2="BackgroundImageFix" result="effect1_dropShadow_2797_8"/>
<feBlend mode="normal" in="SourceGraphic" in2="effect1_dropShadow_2797_8" result="shape"/>
</filter>
</defs>
</svg>
