<svg width="48" height="36" viewBox="0 0 48 36" fill="none" xmlns="http://www.w3.org/2000/svg">
<path fill-rule="evenodd" clip-rule="evenodd" d="M5.14886 19.4149C4.78988 18.8591 4.5001 18.3777 4.28151 18C4.5001 17.6223 4.78988 17.1409 5.14886 16.5851C6.0709 15.1574 7.43636 13.2588 9.2091 11.3679C12.7911 7.54712 17.799 4 24 4C30.201 4 35.209 7.54712 38.791 11.3679C40.5637 13.2588 41.9292 15.1574 42.8512 16.5851C43.2102 17.1409 43.5 17.6223 43.7185 18C43.5 18.3777 43.2102 18.8591 42.8512 19.4149C41.9292 20.8426 40.5637 22.7412 38.791 24.6321C35.209 28.4529 30.201 32 24 32C17.799 32 12.7911 28.4529 9.2091 24.6321C7.43636 22.7412 6.0709 20.8426 5.14886 19.4149ZM47.7882 17.1042C47.7885 17.1049 47.7889 17.1056 46 18C47.7889 18.8944 47.7885 18.8951 47.7882 18.8958L47.7873 18.8976L47.785 18.9023L47.778 18.9159L47.7554 18.9604C47.7363 18.9975 47.7093 19.0494 47.6745 19.1151C47.6049 19.2466 47.504 19.4335 47.3721 19.668C47.1084 20.1367 46.7203 20.797 46.2114 21.5851C45.1959 23.1574 43.6864 25.2588 41.7091 27.3679C37.7911 31.5471 31.799 36 24 36C16.201 36 10.209 31.5471 6.29096 27.3679C4.3137 25.2588 2.80416 23.1574 1.7887 21.5851C1.27973 20.797 0.891614 20.1367 0.627973 19.668C0.496077 19.4335 0.395111 19.2466 0.325537 19.1151C0.290744 19.0494 0.263781 18.9975 0.244706 18.9604L0.22201 18.9159L0.215108 18.9023L0.212771 18.8976L0.21188 18.8958C0.211513 18.8951 0.211176 18.8944 2.00003 18C0.211176 17.1056 0.211513 17.1049 0.21188 17.1042L0.212771 17.1024L0.215108 17.0977L0.22201 17.0841L0.244706 17.0396C0.263781 17.0025 0.290744 16.9506 0.325537 16.8849C0.395111 16.7534 0.496077 16.5665 0.627973 16.332C0.891614 15.8633 1.27973 15.203 1.7887 14.4149C2.80416 12.8426 4.3137 10.7412 6.29096 8.63212C10.209 4.45288 16.201 0 24 0C31.799 0 37.7911 4.45288 41.7091 8.63212C43.6864 10.7412 45.1959 12.8426 46.2114 14.4149C46.7203 15.203 47.1084 15.8633 47.3721 16.332C47.504 16.5665 47.6049 16.7534 47.6745 16.8849C47.7093 16.9506 47.7363 17.0025 47.7554 17.0396L47.778 17.0841L47.785 17.0977L47.7873 17.1024L47.7882 17.1042ZM46 18L47.7889 17.1056C48.0704 17.6686 48.0704 18.3314 47.7889 18.8944L46 18ZM0.211176 17.1056L2.00003 18L0.211176 18.8944C-0.0703514 18.3314 -0.0703514 17.6686 0.211176 17.1056ZM20 18C20 15.7909 21.7909 14 24 14C26.2092 14 28 15.7909 28 18C28 20.2091 26.2092 22 24 22C21.7909 22 20 20.2091 20 18ZM24 10C19.5818 10 16 13.5817 16 18C16 22.4183 19.5818 26 24 26C28.4183 26 32 22.4183 32 18C32 13.5817 28.4183 10 24 10Z" fill="#E4E4E4"/>
</svg>
