<svg width="48" height="36" viewBox="0 0 48 36" fill="none" xmlns="http://www.w3.org/2000/svg">
<mask id="mask0_3296_93" style="mask-type:alpha" maskUnits="userSpaceOnUse" x="0" y="0" width="48" height="36">
<path d="M24.0002 0C31.799 0 37.7911 4.45268 41.7092 8.63184C43.6863 10.7408 45.1956 12.8427 46.2111 14.415C46.72 15.2031 47.1086 15.8633 47.3722 16.332C47.5041 16.5664 47.6054 16.7533 47.675 16.8848C47.7097 16.9504 47.736 17.003 47.755 17.04C47.7645 17.0585 47.7729 17.073 47.7785 17.084C47.7813 17.0894 47.7835 17.0941 47.7853 17.0977C47.7862 17.0994 47.7866 17.1012 47.7873 17.1025L47.7883 17.1045C47.7828 17.1081 47.6844 17.1579 46.0002 18C47.6844 18.8421 47.7828 18.8919 47.7883 18.8955L47.7873 18.8975C47.7866 18.8988 47.7862 18.9006 47.7853 18.9023C47.7835 18.9059 47.7813 18.9106 47.7785 18.916C47.7729 18.927 47.7645 18.9415 47.755 18.96C47.736 18.997 47.7097 19.0496 47.675 19.1152C47.6054 19.2467 47.5041 19.4336 47.3722 19.668C47.1086 20.1367 46.72 20.7969 46.2111 21.585C45.1956 23.1573 43.6863 25.2592 41.7092 27.3682C37.7911 31.5473 31.799 36 24.0002 36C16.2014 35.9999 10.2092 31.5473 6.29118 27.3682C4.31402 25.2592 2.80467 23.1572 1.78923 21.585C1.28029 20.7969 0.891727 20.1366 0.628096 19.668C0.496237 19.4336 0.394922 19.2467 0.325362 19.1152C0.290602 19.0495 0.264346 18.997 0.245284 18.96C0.235795 18.9415 0.227415 18.927 0.221846 18.916C0.219081 18.9106 0.216802 18.9059 0.21501 18.9023C0.214142 18.9006 0.213699 18.8987 0.213057 18.8975L0.212081 18.8955C0.215742 18.8928 0.298278 18.8509 2.00017 18C0.298278 17.1491 0.215742 17.1072 0.212081 17.1045L0.213057 17.1025C0.213699 17.1013 0.214142 17.0994 0.21501 17.0977C0.216802 17.0941 0.219081 17.0894 0.221846 17.084C0.227415 17.073 0.235795 17.0585 0.245284 17.04C0.264346 17.003 0.290602 16.9505 0.325362 16.8848C0.394922 16.7533 0.496237 16.5664 0.628096 16.332C0.891727 15.8634 1.28029 15.2031 1.78923 14.415C2.80467 12.8428 4.31402 10.7408 6.29118 8.63184C10.2092 4.45269 16.2014 7.91338e-05 24.0002 0ZM24.0002 4C17.7993 4.00008 12.7911 7.54744 9.20915 11.3682C7.43654 13.259 6.0706 15.1574 5.1486 16.585C4.79005 17.1401 4.50282 17.6225 4.28435 18C4.50282 18.3775 4.79005 18.8599 5.1486 19.415C6.0706 20.8426 7.43654 22.741 9.20915 24.6318C12.7911 28.4526 17.7993 31.9999 24.0002 32C30.2011 32 35.2092 28.4526 38.7912 24.6318C40.5638 22.741 41.9297 20.8427 42.8517 19.415C43.2101 18.8601 43.4966 18.3775 43.715 18C43.4966 17.6225 43.2101 17.1399 42.8517 16.585C41.9297 15.1573 40.5638 13.259 38.7912 11.3682C35.2092 7.54744 30.2011 4 24.0002 4ZM24.0002 10C28.4184 10 32.0002 13.5817 32.0002 18C32.0002 22.4183 28.4184 26 24.0002 26C19.582 25.9999 16.0002 22.4182 16.0002 18C16.0002 13.5818 19.582 10.0001 24.0002 10ZM24.0002 14C21.7911 14.0001 20.0002 15.7909 20.0002 18C20.0002 20.2091 21.7911 21.9999 24.0002 22C26.2093 22 28.0002 20.2091 28.0002 18C28.0002 15.7909 26.2093 14 24.0002 14ZM2.00017 18L0.211104 18.8945C-0.070368 18.3315 -0.070368 17.6685 0.211104 17.1055L2.00017 18ZM47.7892 17.1055C48.0708 17.6685 48.0708 18.3315 47.7892 18.8945L46.0002 18L47.7892 17.1055Z" fill="#0D0D0D"/>
</mask>
<g mask="url(#mask0_3296_93)">
<rect x="-7" y="-6" width="62" height="49" fill="#372E21"/>
</g>
</svg>
