<svg width="48" height="36" viewBox="0 0 48 36" fill="none" xmlns="http://www.w3.org/2000/svg">
<path d="M24 0C31.7988 0 37.7909 4.45268 41.709 8.63184C43.6862 10.7408 45.1955 12.8427 46.2109 14.415C46.7199 15.2031 47.1084 15.8633 47.3721 16.332C47.5039 16.5664 47.6052 16.7533 47.6748 16.8848C47.7096 16.9504 47.7358 17.003 47.7549 17.04C47.7644 17.0585 47.7727 17.073 47.7783 17.084C47.7811 17.0894 47.7834 17.0941 47.7852 17.0977C47.786 17.0994 47.7865 17.1012 47.7871 17.1025L47.7881 17.1045C47.7827 17.1081 47.6842 17.1579 46 18C47.6842 18.8421 47.7827 18.8919 47.7881 18.8955L47.7871 18.8975C47.7865 18.8988 47.786 18.9006 47.7852 18.9023C47.7834 18.9059 47.7811 18.9106 47.7783 18.916C47.7727 18.927 47.7644 18.9415 47.7549 18.96C47.7358 18.997 47.7096 19.0496 47.6748 19.1152C47.6052 19.2467 47.5039 19.4336 47.3721 19.668C47.1084 20.1367 46.7199 20.7969 46.2109 21.585C45.1955 23.1573 43.6862 25.2592 41.709 27.3682C37.7909 31.5473 31.7988 36 24 36C16.2012 35.9999 10.209 31.5473 6.29102 27.3682C4.31385 25.2592 2.8045 23.1572 1.78906 21.585C1.28012 20.7969 0.89156 20.1366 0.62793 19.668C0.496071 19.4336 0.394755 19.2467 0.325195 19.1152C0.290436 19.0495 0.264179 18.997 0.245117 18.96C0.235629 18.9415 0.227248 18.927 0.22168 18.916C0.218915 18.9106 0.216636 18.9059 0.214844 18.9023C0.213975 18.9006 0.213533 18.8987 0.212891 18.8975L0.211914 18.8955C0.215576 18.8928 0.298112 18.8509 2 18C0.298112 17.1491 0.215576 17.1072 0.211914 17.1045L0.212891 17.1025C0.213533 17.1013 0.213975 17.0994 0.214844 17.0977C0.216636 17.0941 0.218915 17.0894 0.22168 17.084C0.227248 17.073 0.235629 17.0585 0.245117 17.04C0.264179 17.003 0.290436 16.9505 0.325195 16.8848C0.394755 16.7533 0.496071 16.5664 0.62793 16.332C0.89156 15.8634 1.28012 15.2031 1.78906 14.415C2.8045 12.8428 4.31385 10.7408 6.29102 8.63184C10.209 4.45269 16.2012 7.92164e-05 24 0ZM24 4C17.7991 4.00008 12.7909 7.54744 9.20898 11.3682C7.43638 13.259 6.07043 15.1574 5.14844 16.585C4.78989 17.1401 4.50266 17.6225 4.28418 18C4.50266 18.3775 4.78989 18.8599 5.14844 19.415C6.07043 20.8426 7.43638 22.741 9.20898 24.6318C12.7909 28.4526 17.7991 31.9999 24 32C30.2009 32 35.2091 28.4526 38.791 24.6318C40.5636 22.741 41.9296 20.8427 42.8516 19.415C43.21 18.8601 43.4964 18.3775 43.7148 18C43.4964 17.6225 43.21 17.1399 42.8516 16.585C41.9296 15.1573 40.5636 13.259 38.791 11.3682C35.2091 7.54744 30.2009 4 24 4ZM24 10C28.4183 10 32 13.5817 32 18C32 22.4183 28.4183 26 24 26C19.5818 25.9999 16 22.4182 16 18C16 13.5818 19.5818 10.0001 24 10ZM24 14C21.791 14.0001 20 15.7909 20 18C20 20.2091 21.791 21.9999 24 22C26.2091 22 28 20.2091 28 18C28 15.7909 26.2091 14 24 14ZM2 18L0.210938 18.8945C-0.0705345 18.3315 -0.0705345 17.6685 0.210938 17.1055L2 18ZM47.7891 17.1055C48.0706 17.6685 48.0706 18.3315 47.7891 18.8945L46 18L47.7891 17.1055Z" fill="#0D0D0D"/>
</svg>
